<svg xmlns="http://www.w3.org/2000/svg" enable-background="new 0 0 128 128" viewBox="0 0 128 128"><path d="M64.24,17.249c-2.054,0-3.725,1.671-3.725,3.725c0,2.053,1.671,3.724,3.725,3.724c2.053,0,3.724-1.671,3.724-3.724
	C67.964,18.92,66.293,17.249,64.24,17.249z M64.24,22.697c-0.951,0-1.725-0.773-1.725-1.724c0-0.951,0.773-1.725,1.725-1.725
	c0.95,0,1.724,0.773,1.724,1.725C65.964,21.924,65.19,22.697,64.24,22.697z"/><path d="M66.825 12.991c1.603-.471 3.657-.598 4.838.582 1.324 1.322.995 3.425.463 5.197-.711-1.061-1.562-2.108-2.559-3.103-4.955-4.951-11.176-6.492-14.165-3.507-1.525 1.521-2.333 4.526-.309 8.824-1.36 2.876-1.947 6.583.309 8.837 3.468 3.465 10.071.584 14.165-3.507.852-.851 1.83-2.017 2.559-3.103.727 2.164.639 4.096-.463 5.197-1.026 1.026-2.874 1.213-5.074.509l-.607 1.905c2.471.786 5.289.806 7.096-1.001 1.969-1.968 1.96-5.342.312-8.831 1.214-2.569 1.86-5.855.221-8.192-1.631-2.316-4.649-2.517-7.347-1.726L66.825 12.991zM56.816 28.407c-1.281-1.28-1.03-3.468-.451-5.202.69 1.034 1.415 1.976 2.547 3.108.632.632 1.303 1.223 1.991 1.755l1.225-1.581c-.623-.481-1.229-1.016-1.802-1.588-1.341-1.342-2.257-2.616-2.976-3.905 1.288-2.308 3.174-4.341 5.173-5.801l-1.18-1.614c-1.992 1.456-3.748 3.337-4.99 5.19-.574-1.731-.813-3.923.463-5.197 2.122-2.116 7.312-.515 11.337 3.507 1.235 1.234 2.24 2.578 2.981 3.91-.691 1.253-1.726 2.657-2.981 3.911C64.085 28.965 58.896 30.486 56.816 28.407zM69.23 6.879l.668-1.883c-.605-.215-1.236-.397-1.887-.545l-.445 1.948C68.115 6.524 68.674 6.683 69.23 6.879z"/><path d="M66.523,42.232C74.518,41.077,81,33.148,81,25.076v-4.088c0-6.266-3.359-11.743-8.499-14.714l-1.004,1.732
	c4.446,2.571,7.397,7.274,7.497,12.698c0.146,7.92-6.124,14.745-14.036,15.239c-8.702,0.543-15.955-6.375-15.955-14.955
	c0-8.857,7.71-15.879,16.664-14.894l0.221-1.99C55.747,2.992,47,10.937,47,20.988v4.44C47,35.622,56.034,43.748,66.523,42.232z
	 M58,39.007v-2.26c0.648,0.257,1.316,0.469,2,0.646v2.373C59.31,39.561,58.645,39.304,58,39.007z M78.333,30.428
	c-2.067,5.792-7.595,9.957-14.093,9.957c-0.763,0-1.507-0.076-2.24-0.186v-2.415c0.735,0.097,1.479,0.165,2.24,0.165
	C70.105,37.95,75.283,34.961,78.333,30.428z M56,35.805v2.098c-2.685-1.776-4.754-4.395-5.854-7.475
	C51.642,32.65,53.651,34.495,56,35.805z"/><polygon points="80 52 78 52 78 78 50 78 50 50 76 50 76 48 48 48 48 80 80 80"/><path d="M62,54.414V52h-2v1.586l-3,3v3.556c-1.72,0.447-3,1.999-3,3.858c0,2.206,1.794,4,4,4s4-1.794,4-4
	c0-1.859-1.28-3.411-3-3.858v-2.728L62,54.414z M60,64c0,1.103-0.897,2-2,2s-2-0.897-2-2s0.897-2,2-2S60,62.897,60,64z"/><rect width="2" height="3" x="54" y="44"/><rect width="2" height="3" x="60" y="44"/><rect width="2" height="3" x="66" y="44"/><rect width="2" height="3" x="72" y="44"/><rect width="2" height="3" x="54" y="81"/><rect width="2" height="3" x="60" y="81"/><rect width="2" height="3" x="66" y="81"/><rect width="2" height="3" x="72" y="81"/><rect width="3" height="2" x="81" y="54"/><rect width="3" height="2" x="81" y="60"/><rect width="3" height="2" x="81" y="66"/><rect width="3" height="2" x="81" y="72"/><rect width="3" height="2" x="44" y="54"/><rect width="3" height="2" x="44" y="60"/><rect width="3" height="2" x="44" y="66"/><rect width="3" height="2" x="44" y="72"/><path d="M66 73.586V76h2v-1.586l3-3v-3.556c1.72-.447 3-1.999 3-3.858 0-2.206-1.794-4-4-4s-4 1.794-4 4c0 1.859 1.28 3.411 3 3.858v2.728L66 73.586zM68 64c0-1.103.897-2 2-2s2 .897 2 2-.897 2-2 2S68 65.103 68 64zM107.193 34.084c-2.054 0-3.725 1.671-3.725 3.725 0 2.053 1.671 3.724 3.725 3.724 2.053 0 3.724-1.671 3.724-3.724C110.916 35.755 109.245 34.084 107.193 34.084zM107.193 39.532c-.951 0-1.725-.773-1.725-1.724 0-.951.773-1.725 1.725-1.725.95 0 1.724.773 1.724 1.725C108.916 38.759 108.143 39.532 107.193 39.532z"/><path d="M109.778 29.803c1.603-.471 3.657-.599 4.838.582 1.324 1.323.995 3.428.463 5.202-.711-1.062-1.562-2.11-2.559-3.106-4.955-4.955-11.176-6.497-14.165-3.51-1.525 1.523-2.333 4.529-.309 8.83-1.36 2.878-1.947 6.589.309 8.844 3.468 3.468 10.071.584 14.165-3.51.852-.852 1.83-2.018 2.559-3.106.727 2.166.639 4.099-.463 5.202-1.026 1.026-2.874 1.214-5.074.51l-.607 1.906c2.471.787 5.289.806 7.096-1.002 1.969-1.969 1.96-5.346.312-8.837 1.214-2.571 1.86-5.86.221-8.198-1.631-2.318-4.649-2.519-7.347-1.727L109.778 29.803zM99.769 45.232c-1.281-1.281-1.03-3.471-.451-5.206.69 1.035 1.415 1.977 2.547 3.11.632.633 1.303 1.224 1.991 1.757l1.225-1.582c-.623-.481-1.229-1.017-1.802-1.589-1.341-1.343-2.257-2.619-2.976-3.908 1.288-2.31 3.174-4.344 5.173-5.805l-1.18-1.615c-1.992 1.457-3.748 3.339-4.99 5.194-.574-1.733-.813-3.926.463-5.202 2.122-2.117 7.312-.516 11.337 3.51 1.235 1.235 2.24 2.58 2.981 3.913-.691 1.254-1.726 2.659-2.981 3.915C107.038 45.789 101.849 47.312 99.769 45.232zM112.183 23.687l.668-1.885c-.605-.215-1.236-.398-1.887-.546l-.445 1.949C111.068 23.331 111.626 23.49 112.183 23.687z"/><path d="M109.523 59.067C117.518 57.911 124 49.976 124 41.897v-4.091c0-6.271-3.359-11.752-8.499-14.725l-1.004 1.733c4.446 2.573 7.397 7.28 7.497 12.708.146 7.926-6.124 14.756-14.036 15.251-8.702.544-15.955-6.38-15.955-14.966 0-8.864 7.71-15.891 16.664-14.905l.221-1.991C98.747 19.797 90 27.748 90 37.806v4.444C90 52.452 99.034 60.584 109.523 59.067zM101 55.839v-2.261c.648.257 1.316.469 2 .646v2.374C102.31 56.394 101.645 56.136 101 55.839zM121.333 47.254c-2.067 5.797-7.595 9.965-14.093 9.965-.763 0-1.507-.076-2.24-.186v-2.417c.735.098 1.479.165 2.24.165C113.105 54.781 118.283 51.79 121.333 47.254zM99 52.635v2.1c-2.685-1.777-4.754-4.399-5.854-7.481C94.642 49.478 96.651 51.324 99 52.635zM21.193 34.084c-2.054 0-3.725 1.671-3.725 3.725 0 2.053 1.671 3.724 3.725 3.724 2.053 0 3.724-1.671 3.724-3.724C24.916 35.755 23.245 34.084 21.193 34.084zM21.193 39.532c-.951 0-1.725-.773-1.725-1.724 0-.951.773-1.725 1.725-1.725.95 0 1.724.773 1.724 1.725C22.916 38.759 22.143 39.532 21.193 39.532z"/><path d="M23.778 29.803c1.603-.471 3.657-.599 4.838.582 1.324 1.323.995 3.428.463 5.202-.711-1.062-1.562-2.11-2.559-3.106-4.955-4.955-11.176-6.497-14.165-3.51-1.525 1.523-2.333 4.529-.309 8.83-1.36 2.878-1.947 6.589.309 8.844 3.468 3.468 10.071.584 14.165-3.51.852-.852 1.83-2.018 2.559-3.106.727 2.166.639 4.099-.463 5.202-1.026 1.026-2.874 1.214-5.074.51l-.607 1.906c2.471.787 5.289.806 7.096-1.002 1.969-1.969 1.96-5.346.312-8.837 1.214-2.571 1.86-5.86.221-8.198-1.631-2.318-4.649-2.519-7.347-1.727L23.778 29.803zM13.769 45.232c-1.281-1.281-1.03-3.471-.451-5.206.69 1.035 1.415 1.977 2.547 3.11.632.633 1.303 1.224 1.991 1.757l1.225-1.582c-.623-.481-1.229-1.017-1.802-1.589-1.341-1.343-2.257-2.619-2.976-3.908 1.288-2.31 3.174-4.344 5.173-5.805l-1.18-1.615c-1.992 1.457-3.748 3.339-4.99 5.194-.574-1.733-.813-3.926.463-5.202 2.122-2.117 7.312-.516 11.337 3.51 1.235 1.235 2.24 2.58 2.981 3.913-.691 1.254-1.726 2.659-2.981 3.915C21.038 45.789 15.849 47.312 13.769 45.232zM26.183 23.687l.668-1.885c-.605-.215-1.236-.398-1.887-.546l-.445 1.949C25.068 23.331 25.626 23.49 26.183 23.687z"/><path d="M23.523 59.067C31.518 57.911 38 49.976 38 41.897l0-4.091c0-6.271-3.359-11.752-8.499-14.725l-1.004 1.733c4.446 2.573 7.397 7.28 7.497 12.708.146 7.926-6.124 14.756-14.036 15.251-8.702.544-15.955-6.38-15.955-14.966 0-8.864 7.71-15.891 16.664-14.905l.221-1.991C12.747 19.797 4 27.748 4 37.806v4.444C4 52.452 13.034 60.584 23.523 59.067zM15 55.839v-2.261c.648.257 1.316.469 2 .646v2.374C16.31 56.394 15.645 56.136 15 55.839zM35.333 47.254c-2.067 5.797-7.595 9.965-14.093 9.965-.763 0-1.507-.076-2.24-.186v-2.417c.735.098 1.479.165 2.24.165C27.105 54.781 32.283 51.79 35.333 47.254zM13 52.635v2.1c-2.685-1.777-4.754-4.399-5.854-7.481C8.642 49.478 10.651 51.324 13 52.635zM107.193 81.279c-2.054 0-3.725 1.671-3.725 3.725 0 2.053 1.671 3.724 3.725 3.724 2.053 0 3.724-1.671 3.724-3.724C110.916 82.95 109.245 81.279 107.193 81.279zM107.193 86.727c-.951 0-1.725-.773-1.725-1.724 0-.951.773-1.725 1.725-1.725.95 0 1.724.773 1.724 1.725C108.916 85.954 108.143 86.727 107.193 86.727z"/><path d="M109.778 76.998c1.603-.471 3.657-.599 4.838.582 1.324 1.323.995 3.428.463 5.202-.711-1.062-1.562-2.11-2.559-3.106-4.955-4.955-11.176-6.497-14.165-3.51-1.525 1.523-2.333 4.529-.309 8.83-1.36 2.878-1.947 6.589.309 8.844 3.468 3.468 10.071.584 14.165-3.51.852-.852 1.83-2.018 2.559-3.106.727 2.166.639 4.099-.463 5.202-1.026 1.026-2.874 1.214-5.074.51l-.607 1.906c2.471.787 5.289.806 7.096-1.002 1.969-1.969 1.96-5.346.312-8.837 1.214-2.571 1.86-5.86.221-8.198-1.631-2.318-4.649-2.519-7.347-1.727L109.778 76.998zM99.769 92.426c-1.281-1.281-1.03-3.471-.451-5.206.69 1.035 1.415 1.977 2.547 3.11.632.633 1.303 1.224 1.991 1.757l1.225-1.582c-.623-.481-1.229-1.017-1.802-1.589-1.341-1.343-2.257-2.619-2.976-3.908 1.288-2.31 3.174-4.344 5.173-5.805l-1.18-1.615c-1.992 1.457-3.748 3.339-4.99 5.194-.574-1.733-.813-3.926.463-5.202 2.122-2.117 7.312-.516 11.337 3.51 1.235 1.235 2.24 2.58 2.981 3.913-.691 1.254-1.726 2.659-2.981 3.915C107.038 92.984 101.849 94.506 99.769 92.426zM112.183 70.882l.668-1.885c-.605-.215-1.236-.398-1.887-.546l-.445 1.949C111.068 70.526 111.626 70.685 112.183 70.882z"/><path d="M109.523 106.262c7.995-1.156 14.477-9.091 14.477-17.17v-4.091c0-6.271-3.359-11.752-8.499-14.725l-1.004 1.733c4.446 2.573 7.397 7.28 7.497 12.708.146 7.926-6.124 14.756-14.036 15.251-8.702.544-15.955-6.38-15.955-14.966 0-8.864 7.71-15.891 16.664-14.905l.221-1.991C98.747 66.991 90 74.942 90 85.001v4.444C90 99.647 99.034 107.779 109.523 106.262zM101 103.034v-2.261c.648.257 1.316.469 2 .646v2.374C102.31 103.589 101.645 103.331 101 103.034zM121.333 94.449c-2.067 5.797-7.595 9.965-14.093 9.965-.763 0-1.507-.076-2.24-.186v-2.417c.735.098 1.479.165 2.24.165C113.105 101.976 118.283 98.985 121.333 94.449zM99 99.83v2.1c-2.685-1.777-4.754-4.399-5.854-7.481C94.642 96.673 96.651 98.519 99 99.83zM21.193 81.279c-2.054 0-3.725 1.671-3.725 3.725 0 2.053 1.671 3.724 3.725 3.724 2.053 0 3.724-1.671 3.724-3.724C24.916 82.95 23.245 81.279 21.193 81.279zM21.193 86.727c-.951 0-1.725-.773-1.725-1.724 0-.951.773-1.725 1.725-1.725.95 0 1.724.773 1.724 1.725C22.916 85.954 22.143 86.727 21.193 86.727z"/><path d="M23.778 76.998c1.603-.471 3.657-.599 4.838.582 1.324 1.323.995 3.428.463 5.202-.711-1.062-1.562-2.11-2.559-3.106-4.955-4.955-11.176-6.497-14.165-3.51-1.525 1.523-2.333 4.529-.309 8.83-1.36 2.878-1.947 6.589.309 8.844 3.468 3.468 10.071.584 14.165-3.51.852-.852 1.83-2.018 2.559-3.106.727 2.166.639 4.099-.463 5.202-1.026 1.026-2.874 1.214-5.074.51l-.607 1.906c2.471.787 5.289.806 7.096-1.002 1.969-1.969 1.96-5.346.312-8.837 1.214-2.571 1.86-5.86.221-8.198-1.631-2.318-4.649-2.519-7.347-1.727L23.778 76.998zM13.769 92.426c-1.281-1.281-1.03-3.471-.451-5.206.69 1.035 1.415 1.977 2.547 3.11.632.633 1.303 1.224 1.991 1.757l1.225-1.582c-.623-.481-1.229-1.017-1.802-1.589-1.341-1.343-2.257-2.619-2.976-3.908 1.288-2.31 3.174-4.344 5.173-5.805l-1.18-1.615c-1.992 1.457-3.748 3.339-4.99 5.194-.574-1.733-.813-3.926.463-5.202 2.122-2.117 7.312-.516 11.337 3.51 1.235 1.235 2.24 2.58 2.981 3.913-.691 1.254-1.726 2.659-2.981 3.915C21.038 92.984 15.849 94.506 13.769 92.426zM26.183 70.882l.668-1.885c-.605-.215-1.236-.398-1.887-.546L24.519 70.4C25.068 70.526 25.626 70.685 26.183 70.882z"/><path d="M23.523 106.262C31.518 105.106 38 97.171 38 89.092l0-4.091c0-6.271-3.359-11.752-8.499-14.725l-1.004 1.733c4.446 2.573 7.397 7.28 7.497 12.708.146 7.926-6.124 14.756-14.036 15.251-8.702.544-15.955-6.38-15.955-14.966 0-8.864 7.71-15.891 16.664-14.905l.221-1.991C12.747 66.991 4 74.942 4 85.001v4.444C4 99.647 13.034 107.779 23.523 106.262zM15 103.034v-2.261c.648.257 1.316.469 2 .646v2.374C16.31 103.589 15.645 103.331 15 103.034zM35.333 94.449c-2.067 5.797-7.595 9.965-14.093 9.965-.763 0-1.507-.076-2.24-.186v-2.417c.735.098 1.479.165 2.24.165C27.105 101.976 32.283 98.985 35.333 94.449zM13 99.83v2.1c-2.685-1.777-4.754-4.399-5.854-7.481C8.642 96.673 10.651 98.519 13 99.83zM64 98.854c-2.054 0-3.725 1.67-3.725 3.722 0 2.051 1.671 3.721 3.725 3.721 2.053 0 3.724-1.67 3.724-3.721C67.724 100.524 66.053 98.854 64 98.854zM64 104.298c-.951 0-1.725-.773-1.725-1.722 0-.95.773-1.723 1.725-1.723.95 0 1.724.773 1.724 1.723C65.724 103.525 64.951 104.298 64 104.298z"/><path d="M66.585 94.577c1.603-.471 3.657-.598 4.838.582 1.324 1.322.995 3.425.463 5.197-.711-1.061-1.562-2.108-2.559-3.103-4.955-4.951-11.176-6.492-14.165-3.507-1.525 1.521-2.333 4.526-.309 8.823-1.36 2.876-1.947 6.583.309 8.837 3.468 3.465 10.071.584 14.165-3.507.852-.851 1.83-2.016 2.559-3.103.727 2.164.639 4.096-.463 5.197-1.026 1.026-2.874 1.213-5.074.509l-.607 1.905c2.471.786 5.289.806 7.096-1.001 1.969-1.968 1.96-5.342.312-8.83 1.214-2.569 1.86-5.855.221-8.191-1.631-2.316-4.649-2.517-7.347-1.726L66.585 94.577zM56.577 109.993c-1.281-1.28-1.03-3.468-.451-5.202.69 1.034 1.415 1.975 2.547 3.108.632.632 1.303 1.223 1.991 1.755l1.225-1.581c-.623-.481-1.229-1.016-1.802-1.588-1.341-1.342-2.257-2.616-2.976-3.905 1.288-2.308 3.174-4.34 5.173-5.801l-1.18-1.614c-1.992 1.456-3.748 3.336-4.99 5.19-.574-1.731-.813-3.923.463-5.197 2.122-2.115 7.312-.515 11.337 3.507 1.235 1.234 2.24 2.578 2.981 3.909-.691 1.253-1.726 2.657-2.981 3.911C63.845 110.55 58.656 112.071 56.577 109.993zM68.991 88.465l.668-1.883c-.605-.215-1.236-.397-1.887-.545l-.445 1.948C67.876 88.11 68.434 88.269 68.991 88.465z"/><path d="M66.523,123.817C74.518,122.662,81,114.733,81,106.661v-4.088c0-6.266-3.359-11.743-8.499-14.713l-1.004,1.732
	c4.446,2.571,7.397,7.274,7.497,12.697c0.146,7.92-6.124,14.744-14.036,15.238c-8.702,0.543-15.955-6.375-15.955-14.954
	c0-8.857,7.71-15.879,16.664-14.893l0.221-1.99C55.747,84.578,47,92.523,47,102.573v4.44C47,117.208,56.034,125.333,66.523,123.817z
	 M58,120.592v-2.26c0.648,0.257,1.316,0.469,2,0.646v2.372C59.31,121.146,58.645,120.889,58,120.592z M78.333,112.014
	c-2.067,5.792-7.595,9.957-14.093,9.957c-0.763,0-1.507-0.076-2.24-0.186v-2.415c0.735,0.097,1.479,0.165,2.24,0.165
	C70.105,119.535,75.283,116.546,78.333,112.014z M56,117.39v2.098c-2.685-1.776-4.754-4.395-5.854-7.475
	C51.642,114.236,53.651,116.081,56,117.39z"/></svg>